<svg xmlns="http://www.w3.org/2000/svg" viewBox="0 0 862 353" width="862" height="353">
	<style>
		tspan { white-space:pre }
		.shp0 { fill: #111122 } 
		.shp1 { fill: none;stroke: #82b366;stroke-width: 3.5 } 
		.shp2 { fill: #82b366;stroke: #82b366;stroke-width: 3.5 } 
		.shp3 { fill: #d5e8d4;stroke: #6a9153;stroke-width: 3.5 } 
		.shp4 { fill: none;stroke: #9673a6;stroke-width: 3.5 } 
		.shp5 { fill: #9673a6;stroke: #9673a6;stroke-width: 3.5 } 
		.shp6 { fill: #e1d5e7;stroke: #9673a6;stroke-width: 3.5 } 
		.shp7 { fill: #dae8fc;stroke: #6c8ebf;stroke-width: 3.5 } 
		.shp8 { fill: none;stroke: #9673a6;stroke-width: 1.75 } 
		.shp9 { fill: #9673a6;stroke: #9673a6;stroke-width: 1.75 } 
		.shp10 { fill: #dae8fc;stroke: #6c8ebf;stroke-width: 1.75 } 
	</style>
	<path id=" " class="shp0" d="M-8 -18L872 -18L872 370L-8 370L-8 -18Z" />
	<g id="Layer">
		<path id="Layer" class="shp1" d="M225.69 176.74L294.5 176.74" />
		<path id="Layer" class="shp2" d="M304.39 176.74L291.21 183.33L294.5 176.74L291.21 170.16L304.39 176.74Z" />
		<path id="Layer" class="shp3" d="M42.83 127.32L210.87 127.32C219.07 127.32 225.69 133.95 225.69 142.15L225.69 211.34C225.69 219.54 219.07 226.17 210.87 226.17L42.83 226.17C34.63 226.17 28 219.54 28 211.34L28 142.15C28 133.95 34.63 127.32 42.83 127.32Z" />
		<g id="Layer">
			<g id="Layer">
				<path id="Client " fill="#6a9153" d="M97.51 176.08C97.51 180.21 100.54 183.12 104.51 183.12C107.58 183.12 110.07 181.5 111 178.65L107.81 178.65C107.16 180 105.97 180.65 104.49 180.65C102.08 180.65 100.36 178.87 100.36 176.08C100.36 173.27 102.08 171.51 104.49 171.51C105.97 171.51 107.16 172.17 107.81 173.49L111 173.49C110.07 170.66 107.58 169.02 104.51 169.02C100.54 169.02 97.51 171.95 97.51 176.08ZM113.37 183L116.14 183L116.14 168.37L113.37 168.37ZM118.86 183L121.63 183L121.63 172.05L118.86 172.05ZM120.27 170.74C121.24 170.74 121.97 170.03 121.97 169.12C121.97 168.21 121.24 167.5 120.27 167.5C119.28 167.5 118.57 168.21 118.57 169.12C118.57 170.03 119.28 170.74 120.27 170.74ZM129.06 174.14C130.49 174.14 131.63 175.05 131.67 176.5L126.48 176.5C126.69 174.99 127.74 174.14 129.06 174.14ZM134.26 179.56L131.28 179.56C130.92 180.29 130.27 180.88 129.08 180.88C127.7 180.88 126.59 179.98 126.46 178.35L134.46 178.35C134.52 178 134.54 177.64 134.54 177.29C134.54 174.02 132.31 171.87 129.14 171.87C125.9 171.87 123.65 174.06 123.65 177.52C123.65 180.96 125.96 183.18 129.14 183.18C131.85 183.18 133.67 181.58 134.26 179.56ZM144.23 183L147 183L147 176.57C147 173.55 145.18 171.89 142.63 171.89C141.22 171.89 140.04 172.48 139.33 173.41L139.33 172.05L136.56 172.05L136.56 183L139.33 183L139.33 176.95C139.33 175.19 140.29 174.24 141.8 174.24C143.26 174.24 144.23 175.19 144.23 176.95ZM150.06 179.6C150.06 182.11 151.46 183 153.56 183L155.3 183L155.3 180.67L154.01 180.67C153.14 180.67 152.85 180.35 152.85 179.62L152.85 174.32L155.3 174.32L155.3 172.05L152.85 172.05L152.85 169.34L150.06 169.34L150.06 172.05L148.76 172.05L148.76 174.32L150.06 174.32Z" />
			</g>
		</g>
		<path id="Layer" class="shp4" d="M505.76 176.74L623.99 176.74" />
		<path id="Layer" class="shp5" d="M633.88 176.74L620.7 183.33L623.99 176.74L620.7 170.16L633.88 176.74Z" />
		<path id="Layer" class="shp6" d="M322.89 127.32L490.93 127.32C499.13 127.32 505.76 133.95 505.76 142.15L505.76 211.34C505.76 219.54 499.13 226.17 490.93 226.17L322.89 226.17C314.69 226.17 308.07 219.54 308.07 211.34L308.07 142.15C308.07 133.95 314.69 127.32 322.89 127.32Z" />
		<g id="Layer">
			<g id="Layer">
				<path id="Fasteer App " fill="#9673a6" d="M347.62 183L350.39 183L350.39 177.17L354.8 177.17L354.8 174.97L350.39 174.97L350.39 171.43L356.14 171.43L356.14 169.2L347.62 169.2ZM357.38 177.48C357.38 180.9 359.6 183.18 362.37 183.18C364.11 183.18 365.35 182.35 366 181.4L366 183L368.79 183L368.79 172.05L366 172.05L366 173.61C365.35 172.7 364.15 171.87 362.39 171.87C359.6 171.87 357.38 174.06 357.38 177.48ZM366 177.52C366 179.6 364.62 180.75 363.1 180.75C361.62 180.75 360.21 179.56 360.21 177.48C360.21 175.41 361.62 174.3 363.1 174.3C364.62 174.3 366 175.45 366 177.52ZM380 179.88C379.92 175.86 373.85 177.11 373.85 175.11C373.85 174.48 374.39 174.06 375.41 174.06C376.5 174.06 377.17 174.64 377.25 175.49L379.9 175.49C379.74 173.31 378.14 171.87 375.49 171.87C372.79 171.87 371.16 173.33 371.16 175.15C371.16 179.16 377.35 177.92 377.35 179.88C377.35 180.51 376.76 181 375.67 181C374.56 181 373.79 180.37 373.69 179.54L370.91 179.54C371.03 181.58 372.94 183.18 375.69 183.18C378.36 183.18 380 181.75 380 179.88ZM382.71 179.6C382.71 182.11 384.11 183 386.21 183L387.95 183L387.95 180.67L386.66 180.67C385.79 180.67 385.5 180.35 385.5 179.62L385.5 174.32L387.95 174.32L387.95 172.05L385.5 172.05L385.5 169.34L382.71 169.34L382.71 172.05L381.4 172.05L381.4 174.32L382.71 174.32ZM394.65 174.14C396.07 174.14 397.22 175.05 397.26 176.5L392.06 176.5C392.28 174.99 393.33 174.14 394.65 174.14ZM399.85 179.56L396.86 179.56C396.51 180.29 395.86 180.88 394.67 180.88C393.29 180.88 392.18 179.98 392.04 178.35L400.05 178.35C400.11 178 400.13 177.64 400.13 177.29C400.13 174.02 397.89 171.87 394.73 171.87C391.49 171.87 389.23 174.06 389.23 177.52C389.23 180.96 391.55 183.18 394.73 183.18C397.44 183.18 399.26 181.58 399.85 179.56ZM406.85 174.14C408.27 174.14 409.42 175.05 409.46 176.5L404.26 176.5C404.48 174.99 405.52 174.14 406.85 174.14ZM412.05 179.56L409.06 179.56C408.71 180.29 408.05 180.88 406.87 180.88C405.48 180.88 404.38 179.98 404.24 178.35L412.24 178.35C412.3 178 412.32 177.64 412.32 177.29C412.32 174.02 410.09 171.87 406.93 171.87C403.68 171.87 401.43 174.06 401.43 177.52C401.43 180.96 403.74 183.18 406.93 183.18C409.64 183.18 411.45 181.58 412.05 179.56ZM417.11 177.54C417.11 175.43 418.1 174.8 419.74 174.8L420.47 174.8L420.47 171.89C418.95 171.89 417.8 172.62 417.11 173.75L417.11 172.05L414.34 172.05L414.34 183L417.11 183ZM436.4 183L439.33 183L434.37 169.18L431.14 169.18L426.18 183L429.09 183L430 180.37L435.49 180.37ZM434.74 178.16L430.75 178.16L432.75 172.38ZM443.95 173.63L443.95 172.05L441.19 172.05L441.19 188.22L443.95 188.22L443.95 181.44C444.63 182.33 445.85 183.18 447.57 183.18C450.38 183.18 452.57 180.9 452.57 177.48C452.57 174.06 450.38 171.87 447.57 171.87C445.87 171.87 444.61 172.7 443.95 173.63ZM449.75 177.48C449.75 179.56 448.34 180.75 446.84 180.75C445.36 180.75 443.95 179.6 443.95 177.52C443.95 175.45 445.36 174.3 446.84 174.3C448.34 174.3 449.75 175.41 449.75 177.48ZM457.36 173.63L457.36 172.05L454.59 172.05L454.59 188.22L457.36 188.22L457.36 181.44C458.03 182.33 459.26 183.18 460.98 183.18C463.78 183.18 465.98 180.9 465.98 177.48C465.98 174.06 463.78 171.87 460.98 171.87C459.28 171.87 458.01 172.7 457.36 173.63ZM463.15 177.48C463.15 179.56 461.75 180.75 460.24 180.75C458.76 180.75 457.36 179.6 457.36 177.52C457.36 175.45 458.76 174.3 460.24 174.3C461.75 174.3 463.15 175.41 463.15 177.48Z" />
			</g>
		</g>
		<path id="Layer" class="shp7" d="M652.38 127.32L820.42 127.32C828.62 127.32 835.25 133.95 835.25 142.15L835.25 211.34C835.25 219.54 828.62 226.17 820.42 226.17L652.38 226.17C644.18 226.17 637.56 219.54 637.56 211.34L637.56 142.15C637.56 133.95 644.18 127.32 652.38 127.32Z" />
		<g id="Layer">
			<g id="Layer">
				<path id="Controller " fill="#6c8ebf" d="M686.47 176.08C686.47 180.21 689.49 183.12 693.47 183.12C696.53 183.12 699.02 181.5 699.95 178.65L696.77 178.65C696.12 180 694.93 180.65 693.45 180.65C691.04 180.65 689.32 178.87 689.32 176.08C689.32 173.27 691.04 171.51 693.45 171.51C694.93 171.51 696.12 172.17 696.77 173.49L699.95 173.49C699.02 170.66 696.53 169.02 693.47 169.02C689.49 169.02 686.47 171.95 686.47 176.08ZM712.9 177.52C712.9 174.06 710.43 171.87 707.27 171.87C704.1 171.87 701.63 174.06 701.63 177.52C701.63 180.96 704.02 183.18 707.19 183.18C710.37 183.18 712.9 180.96 712.9 177.52ZM704.44 177.52C704.44 175.33 705.76 174.28 707.23 174.28C708.69 174.28 710.05 175.33 710.05 177.52C710.05 179.7 708.65 180.77 707.19 180.77C705.7 180.77 704.44 179.7 704.44 177.52ZM722.61 183L725.38 183L725.38 176.57C725.38 173.55 723.56 171.89 721.01 171.89C719.6 171.89 718.42 172.48 717.7 173.41L717.7 172.05L714.94 172.05L714.94 183L717.7 183L717.7 176.95C717.7 175.19 718.67 174.24 720.18 174.24C721.64 174.24 722.61 175.19 722.61 176.95ZM728.44 179.6C728.44 182.11 729.84 183 731.94 183L733.68 183L733.68 180.67L732.39 180.67C731.52 180.67 731.23 180.35 731.23 179.62L731.23 174.32L733.68 174.32L733.68 172.05L731.23 172.05L731.23 169.34L728.44 169.34L728.44 172.05L727.13 172.05L727.13 174.32L728.44 174.32ZM738.44 177.54C738.44 175.43 739.43 174.8 741.07 174.8L741.8 174.8L741.8 171.89C740.28 171.89 739.14 172.62 738.44 173.75L738.44 172.05L735.68 172.05L735.68 183L738.44 183ZM754.24 177.52C754.24 174.06 751.77 171.87 748.6 171.87C745.44 171.87 742.97 174.06 742.97 177.52C742.97 180.96 745.36 183.18 748.53 183.18C751.71 183.18 754.24 180.96 754.24 177.52ZM745.78 177.52C745.78 175.33 747.1 174.28 748.57 174.28C750.03 174.28 751.39 175.33 751.39 177.52C751.39 179.7 749.99 180.77 748.53 180.77C747.04 180.77 745.78 179.7 745.78 177.52ZM756.28 183L759.04 183L759.04 168.37L756.28 168.37ZM761.77 183L764.54 183L764.54 168.37L761.77 168.37ZM771.97 174.14C773.4 174.14 774.54 175.05 774.58 176.5L769.38 176.5C769.6 174.99 770.65 174.14 771.97 174.14ZM777.17 179.56L774.19 179.56C773.83 180.29 773.18 180.88 771.99 180.88C770.61 180.88 769.5 179.98 769.36 178.35L777.37 178.35C777.43 178 777.45 177.64 777.45 177.29C777.45 174.02 775.21 171.87 772.05 171.87C768.81 171.87 766.56 174.06 766.56 177.52C766.56 180.96 768.87 183.18 772.05 183.18C774.76 183.18 776.58 181.58 777.17 179.56ZM782.23 177.54C782.23 175.43 783.22 174.8 784.86 174.8L785.59 174.8L785.59 171.89C784.07 171.89 782.92 172.62 782.23 173.75L782.23 172.05L779.46 172.05L779.46 183L782.23 183Z" />
			</g>
		</g>
		<path id="Layer" class="shp8" d="M505.76 176.74L628.17 115.54" />
		<path id="Layer" class="shp9" d="M635.91 111.67L628.17 121.98L628.17 115.54L623.01 111.67L635.91 111.67Z" />
		<path id="Layer" class="shp8" d="M505.76 176.74L628.17 237.95" />
		<path id="Layer" class="shp9" d="M635.91 241.82L623.01 241.82L628.17 237.95L628.17 231.51L635.91 241.82Z" />
		<path id="Layer" class="shp10" d="M553.54 242.64L721.58 242.64C729.78 242.64 736.4 249.27 736.4 257.47L736.4 326.66C736.4 334.86 729.78 341.49 721.58 341.49L553.54 341.49C545.34 341.49 538.71 334.86 538.71 326.66L538.71 257.47C538.71 249.27 545.34 242.64 553.54 242.64Z" />
		<g id="Layer">
			<g id="Layer">
				<path id="Controller " fill="#6c8ebf" d="M588.56 291.1C588.56 295.23 591.7 298.12 595.58 298.12C598.45 298.12 600.92 296.7 601.97 294.01L599.26 294.01C598.53 295.47 597.22 296.16 595.58 296.16C592.85 296.16 590.87 294.2 590.87 291.1C590.87 288 592.85 286.06 595.58 286.06C597.22 286.06 598.53 286.75 599.26 288.21L601.97 288.21C600.92 285.53 598.45 284.08 595.58 284.08C591.7 284.08 588.56 286.99 588.56 291.1ZM614.97 292.54C614.97 289.12 612.52 286.93 609.42 286.93C606.31 286.93 603.86 289.12 603.86 292.54C603.86 295.96 606.22 298.18 609.32 298.18C612.44 298.18 614.97 295.96 614.97 292.54ZM606.16 292.54C606.16 290.07 607.68 288.89 609.38 288.89C611.06 288.89 612.66 290.07 612.66 292.54C612.66 295.01 611 296.22 609.32 296.22C607.62 296.22 606.16 295.01 606.16 292.54ZM624.94 298L627.17 298L627.17 291.57C627.17 288.53 625.25 286.93 622.7 286.93C621.4 286.93 620.19 287.46 619.46 288.35L619.46 287.11L617.21 287.11L617.21 298L619.46 298L619.46 291.91C619.46 289.91 620.55 288.89 622.21 288.89C623.85 288.89 624.94 289.91 624.94 291.91ZM630.39 294.98C630.39 297.19 631.6 298 633.54 298L635.32 298L635.32 296.12L633.93 296.12C632.98 296.12 632.67 295.79 632.67 294.98L632.67 288.95L635.32 288.95L635.32 287.11L632.67 287.11L632.67 284.4L630.39 284.4L630.39 287.11L629.11 287.11L629.11 288.95L630.39 288.95ZM639.65 292.27C639.65 289.95 640.67 289.26 642.33 289.26L642.91 289.26L642.91 286.93C641.37 286.93 640.28 287.6 639.65 288.69L639.65 287.11L637.39 287.11L637.39 298L639.65 298ZM655.36 292.54C655.36 289.12 652.91 286.93 649.81 286.93C646.7 286.93 644.25 289.12 644.25 292.54C644.25 295.96 646.6 298.18 649.71 298.18C652.83 298.18 655.36 295.96 655.36 292.54ZM646.55 292.54C646.55 290.07 648.07 288.89 649.77 288.89C651.45 288.89 653.05 290.07 653.05 292.54C653.05 295.01 651.39 296.22 649.71 296.22C648.01 296.22 646.55 295.01 646.55 292.54ZM657.6 298L659.85 298L659.85 283.37L657.6 283.37ZM662.82 298L665.07 298L665.07 283.37L662.82 283.37ZM672.62 288.83C674.3 288.83 675.63 289.89 675.67 291.57L669.64 291.57C669.87 289.86 671.1 288.83 672.62 288.83ZM677.72 294.76L675.29 294.76C674.87 295.61 674.1 296.28 672.72 296.28C671.06 296.28 669.77 295.19 669.62 293.39L677.94 293.39C678 293.02 678.02 292.66 678.02 292.29C678.02 289.08 675.82 286.93 672.72 286.93C669.5 286.93 667.28 289.12 667.28 292.54C667.28 295.96 669.6 298.18 672.72 298.18C675.39 298.18 677.11 296.66 677.72 294.76ZM682.49 292.27C682.49 289.95 683.51 289.26 685.17 289.26L685.75 289.26L685.75 286.93C684.21 286.93 683.12 287.6 682.49 288.69L682.49 287.11L680.23 287.11L680.23 298L682.49 298Z" />
			</g>
		</g>
		<path id="Layer" class="shp10" d="M553.54 12L721.58 12C729.78 12 736.4 18.63 736.4 26.83L736.4 96.02C736.4 104.22 729.78 110.85 721.58 110.85L553.54 110.85C545.34 110.85 538.71 104.22 538.71 96.02L538.71 26.83C538.71 18.63 545.34 12 553.54 12Z" />
		<g id="Layer">
			<g id="Layer">
				<path id="Controller " fill="#6c8ebf" d="M588.56 61.1C588.56 65.23 591.7 68.12 595.58 68.12C598.45 68.12 600.92 66.7 601.97 64.01L599.26 64.01C598.53 65.47 597.22 66.16 595.58 66.16C592.85 66.16 590.87 64.2 590.87 61.1C590.87 58 592.85 56.06 595.58 56.06C597.22 56.06 598.53 56.75 599.26 58.21L601.97 58.21C600.92 55.53 598.45 54.08 595.58 54.08C591.7 54.08 588.56 56.99 588.56 61.1ZM614.97 62.54C614.97 59.12 612.52 56.93 609.42 56.93C606.31 56.93 603.86 59.12 603.86 62.54C603.86 65.96 606.22 68.18 609.32 68.18C612.44 68.18 614.97 65.96 614.97 62.54ZM606.16 62.54C606.16 60.07 607.68 58.89 609.38 58.89C611.06 58.89 612.66 60.07 612.66 62.54C612.66 65.01 611 66.22 609.32 66.22C607.62 66.22 606.16 65.01 606.16 62.54ZM624.94 68L627.17 68L627.17 61.57C627.17 58.53 625.25 56.93 622.7 56.93C621.4 56.93 620.19 57.46 619.46 58.35L619.46 57.11L617.21 57.11L617.21 68L619.46 68L619.46 61.91C619.46 59.91 620.55 58.89 622.21 58.89C623.85 58.89 624.94 59.91 624.94 61.91ZM630.39 64.98C630.39 67.19 631.6 68 633.54 68L635.32 68L635.32 66.12L633.93 66.12C632.98 66.12 632.67 65.79 632.67 64.98L632.67 58.95L635.32 58.95L635.32 57.11L632.67 57.11L632.67 54.4L630.39 54.4L630.39 57.11L629.11 57.11L629.11 58.95L630.39 58.95ZM639.65 62.27C639.65 59.95 640.67 59.26 642.33 59.26L642.91 59.26L642.91 56.93C641.37 56.93 640.28 57.6 639.65 58.69L639.65 57.11L637.39 57.11L637.39 68L639.65 68ZM655.36 62.54C655.36 59.12 652.91 56.93 649.81 56.93C646.7 56.93 644.25 59.12 644.25 62.54C644.25 65.96 646.6 68.18 649.71 68.18C652.83 68.18 655.36 65.96 655.36 62.54ZM646.55 62.54C646.55 60.07 648.07 58.89 649.77 58.89C651.45 58.89 653.05 60.07 653.05 62.54C653.05 65.01 651.39 66.22 649.71 66.22C648.01 66.22 646.55 65.01 646.55 62.54ZM657.6 68L659.85 68L659.85 53.37L657.6 53.37ZM662.82 68L665.07 68L665.07 53.37L662.82 53.37ZM672.62 58.83C674.3 58.83 675.63 59.89 675.67 61.57L669.64 61.57C669.87 59.86 671.1 58.83 672.62 58.83ZM677.72 64.76L675.29 64.76C674.87 65.61 674.1 66.28 672.72 66.28C671.06 66.28 669.77 65.19 669.62 63.39L677.94 63.39C678 63.02 678.02 62.66 678.02 62.29C678.02 59.08 675.82 56.93 672.72 56.93C669.5 56.93 667.28 59.12 667.28 62.54C667.28 65.96 669.6 68.18 672.72 68.18C675.39 68.18 677.11 66.66 677.72 64.76ZM682.49 62.27C682.49 59.95 683.51 59.26 685.17 59.26L685.75 59.26L685.75 56.93C684.21 56.93 683.12 57.6 682.49 58.69L682.49 57.11L680.23 57.11L680.23 68L682.49 68Z" />
			</g>
		</g>
	</g>
	<g id="Layer">
		<g id="Layer">
		</g>
		<g id="Layer">
		</g>
	</g>
</svg>