<?xml version="1.0" encoding="UTF-8" standalone="no"?>
<!DOCTYPE svg PUBLIC "-//W3C//DTD SVG 1.1//EN" "http://www.w3.org/Graphics/SVG/1.1/DTD/svg11.dtd">
<svg width="100%" height="100%" viewBox="0 0 862 353" version="1.1" xmlns="http://www.w3.org/2000/svg" xmlns:xlink="http://www.w3.org/1999/xlink" xml:space="preserve" xmlns:serif="http://www.serif.com/" style="fill-rule:evenodd;clip-rule:evenodd;stroke-linejoin:round;stroke-miterlimit:2;">
    <rect id="_-" serif:id=" " x="-8" y="-18" width="880" height="388" style="fill:rgb(17,17,34);fill-rule:nonzero;"/>
    <g id="client" transform="matrix(1,0,0,1,-9.18975,-80.8698)">
        <g transform="matrix(1,0,0,1,9.52794,79.3995)">
            <path d="M225.446,176.148C225.446,158.067 210.789,143.41 192.708,143.41C136.514,143.41 27.683,143.41 27.683,143.41L27.683,176.442C27.683,185.034 31.096,193.275 37.172,199.351C43.248,205.427 51.489,208.841 60.082,208.841C116.176,208.841 225.446,208.841 225.446,208.841L225.446,176.148Z" style="fill:rgb(56,161,56);"/>
        </g>
        <g transform="matrix(1,0,0,1,3.41124,78.929)">
            <path d="M225.446,175.971C225.446,167.335 222.016,159.053 215.909,152.947C209.803,146.84 201.521,143.41 192.885,143.41C136.742,143.41 27.683,143.41 27.683,143.41L27.683,176.559C27.683,194.388 42.136,208.841 59.964,208.841L225.446,208.841L225.446,175.971Z" style="fill:rgb(96,193,96);"/>
        </g>
        <g transform="matrix(1.33222,0,0,1.33222,-61.993,-16.3)">
            <text x="127.252px" y="208.224px" style="font-family:'Bahnschrift', sans-serif;font-size:12px;fill:white;">Client</text>
        </g>
    </g>
    <g id="arrow" transform="matrix(0.572013,0,0,1.05461,100.446,-3.18399)">
        <path d="M248.664,175.239C247.524,176.963 244.609,178.106 241.351,178.106C237.042,178.106 233.544,176.13 233.544,173.695C233.544,171.261 237.042,169.284 241.351,169.284C244.609,169.284 247.524,170.427 248.664,172.151L311.995,172.151L313.947,169.284L334.116,173.695L313.947,178.106L311.995,175.239L248.664,175.239Z" style="fill:rgb(96,193,96);"/>
    </g>
    <g id="fasteer-app-" serif:id="fasteer app " transform="matrix(1,0,0,1,269.451,-77.1939)">
        <g transform="matrix(1,0,0,1,9.52794,79.3995)">
            <path d="M225.446,176.051C225.446,167.394 222.007,159.092 215.886,152.97C209.764,146.849 201.462,143.41 192.805,143.41C136.639,143.41 27.683,143.41 27.683,143.41L27.683,176.051C27.683,194.16 42.363,208.841 60.472,208.841L225.446,208.841L225.446,176.051Z" style="fill:rgb(122,81,141);"/>
        </g>
        <g transform="matrix(1,0,0,1,3.41124,78.929)">
            <path d="M225.446,176.536C225.446,158.241 210.615,143.41 192.32,143.41C136.014,143.41 27.683,143.41 27.683,143.41L27.683,176.536C27.683,194.377 42.146,208.841 59.987,208.841L225.446,208.841L225.446,176.536Z" style="fill:rgb(150,115,166);"/>
        </g>
        <g transform="matrix(1.33222,0,0,1.33222,-81.1077,-16.3)">
            <text x="127.252px" y="208.224px" style="font-family:'Bahnschrift', sans-serif;font-size:12px;fill:white;">Fasteer App</text>
        </g>
    </g>
    <g id="arrow1" serif:id="arrow">
        <g transform="matrix(1.20433,0,0,1.05461,231.393,-0.873201)">
            <path d="M240.725,175.239C240.184,176.963 238.799,178.106 237.252,178.106C235.205,178.106 233.544,176.13 233.544,173.695C233.544,171.261 235.205,169.284 237.252,169.284C238.799,169.284 240.184,170.427 240.725,172.151L323.61,172.151L324.537,169.284L334.116,173.695L324.537,178.106L323.61,175.239L240.725,175.239Z" style="fill:rgb(150,115,166);"/>
        </g>
        <g transform="matrix(1.17771,-1.01925,0.690143,0.79744,119.871,282.137)">
            <path d="M233.544,175.239L233.544,172.151L325.992,172.151L326.709,169.284L334.116,173.695L326.709,178.106L325.992,175.239L233.544,175.239Z" style="fill:rgb(150,115,166);"/>
        </g>
        <g transform="matrix(1.18086,1.02198,0.690143,-0.79744,118.804,81.7361)">
            <path d="M233.544,175.239L233.544,172.151L326.014,172.151L326.729,169.284L334.116,173.695L326.729,178.106L326.014,175.239L233.544,175.239Z" style="fill:rgb(150,115,166);"/>
        </g>
    </g>
    <g id="controller-03-" serif:id="controller 03 " transform="matrix(1,0,0,1,612.497,-69.0764)">
        <g transform="matrix(1,0,0,1,9.52794,79.3995)">
            <path d="M225.446,176.051C225.446,167.394 222.007,159.092 215.886,152.97C209.764,146.849 201.462,143.41 192.805,143.41C136.639,143.41 27.683,143.41 27.683,143.41L27.683,176.051C27.683,194.16 42.363,208.841 60.472,208.841L225.446,208.841L225.446,176.051Z" style="fill:rgb(76,138,228);"/>
        </g>
        <g transform="matrix(1,0,0,1,3.41124,78.929)">
            <path d="M225.446,176.536C225.446,158.241 210.615,143.41 192.32,143.41C136.014,143.41 27.683,143.41 27.683,143.41L27.683,176.536C27.683,194.377 42.146,208.841 59.987,208.841L225.446,208.841L225.446,176.536Z" style="fill:rgb(128,173,238);"/>
        </g>
        <g transform="matrix(1.33222,0,0,1.33222,-74.3323,-16.3)">
            <text x="127.252px" y="208.224px" style="font-family:'Bahnschrift', sans-serif;font-size:12px;fill:white;">Contr<tspan x="156.836px " y="208.224px ">o</tspan>ller</text>
        </g>
    </g>
    <g id="controller-02" serif:id="controller 02" transform="matrix(1,0,0,1,612.497,32.9872)">
        <g transform="matrix(1,0,0,1,9.52794,79.3995)">
            <path d="M225.446,176.051C225.446,167.394 222.007,159.092 215.886,152.97C209.764,146.849 201.462,143.41 192.805,143.41C136.639,143.41 27.683,143.41 27.683,143.41L27.683,176.051C27.683,194.16 42.363,208.841 60.472,208.841L225.446,208.841L225.446,176.051Z" style="fill:rgb(127,160,208);"/>
        </g>
        <g transform="matrix(1,0,0,1,3.41124,78.929)">
            <path d="M225.446,176.536C225.446,158.241 210.615,143.41 192.32,143.41C136.014,143.41 27.683,143.41 27.683,143.41L27.683,176.536C27.683,194.377 42.146,208.841 59.987,208.841L225.446,208.841L225.446,176.536Z" style="fill:rgb(163,188,223);"/>
        </g>
        <g transform="matrix(1.33222,0,0,1.33222,-74.3323,-16.3)">
            <text x="127.252px" y="208.224px" style="font-family:'Bahnschrift', sans-serif;font-size:12px;fill:white;">Contr<tspan x="156.836px " y="208.224px ">o</tspan>ller</text>
        </g>
    </g>
    <g id="controller-01" serif:id="controller 01" transform="matrix(1,0,0,1,612.497,-169.634)">
        <g transform="matrix(1,0,0,1,9.52794,79.3995)">
            <path d="M225.446,176.051C225.446,167.394 222.007,159.092 215.886,152.97C209.764,146.849 201.462,143.41 192.805,143.41C136.639,143.41 27.683,143.41 27.683,143.41L27.683,176.051C27.683,194.16 42.363,208.841 60.472,208.841L225.446,208.841L225.446,176.051Z" style="fill:rgb(127,160,208);"/>
        </g>
        <g transform="matrix(1,0,0,1,3.41124,78.929)">
            <path d="M225.446,176.536C225.446,158.241 210.615,143.41 192.32,143.41C136.014,143.41 27.683,143.41 27.683,143.41L27.683,176.536C27.683,194.377 42.146,208.841 59.987,208.841L225.446,208.841L225.446,176.536Z" style="fill:rgb(163,188,223);"/>
        </g>
        <g transform="matrix(1.33222,0,0,1.33222,-74.3323,-16.3)">
            <text x="127.252px" y="208.224px" style="font-family:'Bahnschrift', sans-serif;font-size:12px;fill:white;">Contr<tspan x="156.836px " y="208.224px ">o</tspan>ller</text>
        </g>
    </g>
</svg>
